<svg id="Layer_1" data-name="Layer 1" xmlns="http://www.w3.org/2000/svg" viewBox="0 0 258.47 282.19"><defs><style>.cls-1{fill:#eb048d;}.cls-2{fill:#ea048d;}.cls-3{fill:#06bbda;}.cls-4{fill:#b7dee8;}.cls-5{fill:#edf5f9;}.cls-6{fill:#eef0f8;}.cls-7{fill:#d81d87;}.cls-8{fill:#ddd8f7;}.cls-9{fill:#f3f6fa;}.cls-10{fill:#e8f9f8;}.cls-11{fill:#fefefe;}.cls-12{fill:#18a7bf;}.cls-13{fill:#0bbad8;}.cls-14{fill:#12abc7;}.cls-15{fill:#0bb1d0;}</style></defs><title>header-icon</title><path class="cls-1" d="M639,705.06q-2.29,6.74-4.6,13.47L627,733.76c-2.42,4-5,8-7.24,12.14-6.9,12.51-13.42,25.22-21.32,37.15-.87,0-1.75.06-2.62,0-2.5-.17-4.47,0-3.33,3.47.6,1.85-1.46,4.36-2.05,4.21-5.06-1.25-4.2,4.08-4.58,5.32-1.18,3.83-3.27,5.65-6.79,6.54l-.08-.08c.12-2.65-2.17-4.83-1.5-7.6-.24-5.29.21-10.68-1.63-15.78-1-2.8-1.29-5.41.27-8,3.79-5.58,6.18-11.85,8.91-17.94,3.3-7.34,5.94-15,10.35-21.77A27.6,27.6,0,0,0,600,717.8l.52-.5c.17.15.32.37.52.44s.41-.24.41-.37c0-5.7.05-11.41,0-17.12,0-.71-.54-1.06-1.21-1.19a86,86,0,0,0-4.91-21.73c-1.71-4.42-3.68-9.38-8.31-11-20.15-7-38.16-4.16-51.63,15.42-1.22,1.07-2.54,2.06-3,3.76l0-.06c-2.34,2.61-4.21,3-6.27-.55-1.46-2.55-3-5.68-5.86-6.63-3.93-1.32-4.37-4-4.71-7.37-.25-2.43.14-3.15,2.66-2.48,4.1,1.07,8.25,2,12.4,2.79,3.56.7,7.34.69,9.73-2.3,2.93-3.69,3.16-8.76,5.59-12.89a10.56,10.56,0,0,0,1.06-6.36c-1.09-4.76-.61-9.53-1.07-14.26-.11-1.12-1.18-1.85-2-2.66s-2.28-1.07-2.68-2.87c8.09-3.7,16.16-7.55,24.38-11.06a19.54,19.54,0,0,1,10.65-1c5.43.79,10.59,2.92,16.12,3.1,14.91,3.25,26.89,10.67,36.85,22.59,7,8.36,9.18,17.77,11.08,27.68,1.55,8.1.73,16.18-.89,24.16A37.48,37.48,0,0,0,639,705.06Z" transform="translate(-382.76 -578.9)"/><path class="cls-2" d="M431.32,807.59c-10-10.27-19.78-20.64-27.91-32.49-5.5-8-11.05-16.17-13.84-25.48-2.29-7.68-5.81-15.1-6.38-23.27-.31-4.41.18-8.65,2.5-12.59a6.32,6.32,0,0,0,1.24-4.23,27,27,0,0,0,1.61-5.73c1.32-6.32,2.3-12.75,4.56-18.84.6-1.62.74-4,3.31-3.83,2.37.19,2.91-1.28,3.54-3a52.58,52.58,0,0,1,8.17-15c9.77-12.34,22.95-18.6,38.11-21.33,3.46.52,5.68,4,8.8,4.43,7.34,1.14,13.45,5.73,20.75,6.78,1,.14,2.59.32,2.44,1.8-.41,4-.24,8.26-3.86,11.29a2.41,2.41,0,0,1-3.26.24c-4.43-3.63-9.83-5-15.17-6.43-4.19-2.52-8.74-1.61-13-.76-1.75.34-4.49,1.1-5,3.89-13.58,8.23-16.73,21.67-18,36.05l-.35.09c-1.54.42-1.15,1.71-1.16,2.75q-.06,6.12,0,12.24c0,1.06-.31,2.3,1,2.91l.52.61a22.05,22.05,0,0,0,1.06,7.72A160.05,160.05,0,0,0,434.38,756c4.05,7.36,7.78,14.92,13.16,21.47a9.87,9.87,0,0,0,2.5,4.1c3.73,7.53,9.69,13.32,15.24,19.43,3,3.28,6.65,5.93,9,9.8A49.38,49.38,0,0,0,464,832.48l-3.35-1.54,0,0C450.66,823.36,440.54,816,431.32,807.59Z" transform="translate(-382.76 -578.9)"/><path class="cls-3" d="M518.92,594c3.12,2.2,6.2,4.44,9.36,6.57a27.24,27.24,0,0,1,6.82,7.18,23.13,23.13,0,0,1,.34,14c-2.07,6.91-1.29,8.89,4.55,13.12,3.4,2.46,3.81,3.8.9,6.83-2.34,2.44-1.6,3.83.65,5.29,1.34.86,2.25,2.25,1.33,3.38-1.33,1.62-2,2.93-1,4.93a1.29,1.29,0,0,1-.93,1.77c-3,.72-2.37,2.9-2.28,5,.18,4.21-1.3,5.64-5.52,5.57a13.38,13.38,0,0,1-3-.25c-5.32-1.29-10.63-2.61-15.92-4-1.72-.45-2.85-.59-2.81,1.81.08,4.62-.13,9.25,1.7,13.65.08,2.13,1.29,3.64,2.63,5.18a95.26,95.26,0,0,1,11.74,16,3.42,3.42,0,0,1-2.87.12c-11-3.23-20.15-9.44-28.11-17.38-5.37-5.34-11.19-9.68-18.38-12.06-.94-.31-1.67-.52-1.35-1.7,5-4.72,6.78-12.91,3.89-18-.54-1.67.45-3,1.32-4.09,12-15.17,20.22-32.51,29-49.56C513.74,592,513.63,591.9,518.92,594Z" transform="translate(-382.76 -578.9)"/><path class="cls-3" d="M556.44,855c-15.35,4.06-30.92,6.4-46.84,6-12.62-.3-25-2.3-37.35-4.8-3.46-.7-3.7-3.18-4.29-5.71,0-1.36,0-2.73-.11-4.09-1.2-12.81,1.79-24.3,10.6-34a4.32,4.32,0,0,0,1.49-3.29,63.43,63.43,0,0,0,2.06-6.3c.41-1.86,1-2.32,2.73-1.34,6.51,3.69,13.73,5.75,20.54,8.73,7.22,3.16,14.55,6.11,20.93,11,3.07,2.37,6.84,3.88,10.6,5.26A35.69,35.69,0,0,0,555,828,47.23,47.23,0,0,0,556.48,846l.12,3.07Q556.52,852,556.44,855Z" transform="translate(-382.76 -578.9)"/><path class="cls-4" d="M446.23,641.78c-15.16,2.73-28.34,9-38.11,21.33a52.58,52.58,0,0,0-8.17,15c-.63,1.72-1.17,3.19-3.54,3-2.57-.2-2.71,2.21-3.31,3.83-2.26,6.09-3.24,12.52-4.56,18.84a27,27,0,0,1-1.61,5.73,89.65,89.65,0,0,1-2.71-43.28c1.5-8.66,3.84-17,8.11-24.61,10.1-18,24.63-29.93,45.95-31.86,2.14-.19,4.32-1.63,6.47,0-.07,2.61-.31,5.2-.51,7.79-.35,4.63-1.09,9.38.48,14h0c0,1.84-.24,3.76.88,5.39,2.11,3.08.93,4.07-2.36,3.91Z" transform="translate(-382.76 -578.9)"/><path class="cls-3" d="M486.72,580.42l1.5.19,6.68,2.25c-2.23,7.62-5.7,14.74-9.07,21.88-6.35,13.47-12.91,26.85-19.38,40.27-7.59-.53-14.27-2.54-17.38-10.49-1.79-4.56-1.42-9.26-1-14,.41-5.07,1.48-10.12.47-15.23,0-.75-.07-1.5-.1-2.24-.24-4.44-.39-9.38,4.07-11.56C463.32,586.2,473.53,578.56,486.72,580.42Z" transform="translate(-382.76 -578.9)"/><path class="cls-5" d="M448.51,605.3c1,5.11-.06,10.16-.47,15.23-.39,4.73-.76,9.43,1,14,3.11,8,9.79,10,17.38,10.49,2.06,0,1.09,3.8,3.78,3l.75.2c1,2.32,3,1,4.53,1.25l2.25,0c.8.81,1.51,1.81,2.89,1.55,2.89,5.07,1.13,13.26-3.89,18-1.71.32-2.58,1.66-3.55,2.89,0,1.42,2.62.43,2.15,2.3-6.27-1.89-11.62,1-14.93,8.06-3.94,4.89-4,11-5.28,16.72-1.12,1.25-.6,2.8-.74,4.23a18.65,18.65,0,0,0-1.39,7.81c0,.37-.07.75-.1,1.12-3.06,13.73-3.4,27.64-2.93,41.61a73.06,73.06,0,0,0,.89,16c.42,2.89.08,6.2,3,8.46,7.86,6.08,15.8,12,24.51,16.85.92,1.93,3.36,1.67,4.58,3.17,0,1.78-2.68.8-2.48,2.12.46,3-1.27,5.83-.56,8.81a4.32,4.32,0,0,1-1.49,3.29c-8.81,9.69-11.8,21.18-10.6,34,.12,1.36.08,2.73.11,4.09-1.84-.27-1.45-1.72-1.47-2.9,0-2.48.13-5-.06-7.45-.31-3.91-1.78-4.83-5.49-3.73-3.9,1.17-4.61.72-4.95-3.17.75-.11,1.49-.29,1.32-1.28,0-.24-.53-.63-.67-.57-.89.34-.57,1.18-.66,1.85a9,9,0,0,0-6.2-2.54c-2.09,0-5.06-1.35-4.37-5,.2-1-.29-2.23-.5-3.56-1.54,1.17-.37,2.91-1.47,3.9-1.34-.26-.95-1.34-.92-2.07a7.52,7.52,0,0,0-8.4-7.74c-1.85.21-2.21-.18-2.14-1.74,1.24-.12,1.65-.84,1.35-2-.06-.24-.57-.61-.68-.55-1.12.57-.49,1.65-.67,2.51-3-2.06-1.28-4.56-.66-7,9.22,8.45,19.34,15.77,29.27,23.33-1.81.45-1.73,1.43-1.15,3,1.44-1,.86-2.09,1.17-2.95l3.35,1.54a49.38,49.38,0,0,1,10.31-21.66c2.38-2.76,2.14-6.51,3.66-9.6.43-.88-.27-1.38-1.05-1.58-3.6-1-5.9-3.92-8.91-5.81-6.12-3.86-12-8.14-17.93-12.24a9.87,9.87,0,0,1-2.5-4.1,101.64,101.64,0,0,1-2.08-19.91c0-14.18-.22-28.33,2.15-42.44,1.69-10,3.21-20.12,6.39-29.8,2.27-6.87,6.05-12.76,13.77-15a4.19,4.19,0,0,0,3.33-4,2.41,2.41,0,0,0,3.26-.24c3.62-3,3.45-7.26,3.86-11.29.15-1.48-1.42-1.66-2.44-1.8-7.3-1-13.41-5.64-20.75-6.78-3.12-.48-5.34-3.91-8.8-4.43l-3-.92c3.29.16,4.47-.83,2.36-3.91-1.12-1.63-.83-3.55-.88-5.39.67-.11,1.52.23,1.86-.66.05-.15-.34-.64-.57-.68-1-.16-1.16.6-1.29,1.34-1.57-4.6-.83-9.35-.48-14,.2-2.59.44-5.18.51-7.79,3-2.17.52-4.29-.55-5.76-1.19-1.64-2.26-2.93-1.38-4.92s2.6-1.86,4.28-1.45c.18-1.5-1.05-1.93-1.35-2.81-.39-1.17-.52-3.41.34-3.35,5,.39,6.1-4.86,9.54-6.21s-.33-2.29.35-3.24a1.36,1.36,0,0,0,1.5-1.5h0c1.13-.07,2.31,2.33,3.45-.69.83-2.2,3.48.21,5.39.1,2.27-.13,4.36.1,6.81-.48,3.88-.92,8.13-.3,12.23-.22.46,0,.9.76,1.36,1.16-13.19-1.86-23.4,5.78-34.24,11.08-4.46,2.18-4.31,7.12-4.07,11.56-1.8.26-1.74,1.75-1.27,2.72C447.91,607.33,448.24,606.07,448.51,605.3Zm3,221.25c-.1-.55-.09-1.19-.91-1.13a.3.3,0,0,0-.23.23c-.06.82.58.81,1.13.91.18.85-.45,1.94.67,2.51.11,0,.61-.32.68-.56C453.12,827.39,452.72,826.67,451.49,826.55Zm-5.27-206.76c-.89,3-1.15,4.89.2,7.49A11.17,11.17,0,0,0,446.22,619.79Zm.95,15c-.2.18-.63.39-.63.61a1.84,1.84,0,0,0,1,1.79c.13.07.67-.33.73-.58C448.52,635.74,448,635.19,447.17,634.77Z" transform="translate(-382.76 -578.9)"/><path class="cls-6" d="M556.48,846A47.23,47.23,0,0,1,555,828l0,0c.71.22,1.2-.06,1.28-.75.11-1.05-.74-.56-1.22-.65,0-.54,0-1.08-.07-1.63h0a5.49,5.49,0,0,1,3.92,1.22c.91-1.08.47-2.22.6-3.26,3-.36,2.75-3.77,4.7-4.93,3.1-1.83,3.4-4.93,4.18-7.87l.87-1.57c2.48-3.88,3.4-8.28,3.82-12.74,1.5-15.73-5.23-28.44-14.72-40.22-4.55-5.64-9.84-7.92-16.85-5.57-.81-.07-1.43-.36-1.49-1.3,3.47-1.85,7.21-2.22,11.76-1.55-4-5.37-4.18-10.49-2.57-16.06,3.21-11.16.79-17.84-8.55-24.71-3.1-2.28-6.3-4.44-8.74-7.49-4.45-6.27-8.88-12.56-14.45-17.93-.48-2.64-3.25-.8-4.35-2.22-1.83-4.4-1.62-9-1.7-13.65,0-2.4,1.09-2.26,2.81-1.81,5.29,1.4,10.6,2.72,15.92,4a13.38,13.38,0,0,0,3,.25c4.22.07,5.7-1.36,5.52-5.57-.09-2.13-.68-4.31,2.28-5a1.29,1.29,0,0,0,.93-1.77c-1-2-.3-3.31,1-4.93.92-1.13,0-2.52-1.33-3.38-2.25-1.46-3-2.85-.65-5.29,2.91-3,2.5-4.37-.9-6.83-5.84-4.23-6.62-6.21-4.55-13.12a23.13,23.13,0,0,0-.34-14c1.52.17,1.63-1.64,2.68-2a1.51,1.51,0,0,1,.63,2c-2.47,3,1.08,6.82-1.28,9.87a.94.94,0,0,0,.87,1.51c.6-.05,1.22-1.32,1.76-.2.46.92-.31,1.64-1.13,2.07-3.36,1.73-.83,3.88.09,5.16,1.27,1.77,2.13-.53,3-1.22a5.27,5.27,0,0,1,3.52-.85c0,.68-1.36,1.56.14,1.94.48.12,1.65-.59,1.68-1,.11-1.32-1.1-.79-1.82-1,.26-1.37.53-2.95,2.27-2.91,2,0,2.77-.75,3.43-2.54.41-1.09,1.59-2.57,3.21-1.75,1.35.68.78,1.79,0,2.79s0,1.35.84,1.37,2.33.22,1.79-1.44c-1-3,1.22-2.31,2.82-3.17,4.5-2.41,9.21.24,13.65-1.28,2.24-.77,4,.88,5.82,1.86,1.52.81,3.07,2,4-.85.4-1.19,2.38-1.57,2.72-.63,1,2.79,3.33,2.86,5.53,3.38,1.16.27,1,1.21,1.11,2.07-5.53-.18-10.69-2.31-16.12-3.1a19.54,19.54,0,0,0-10.65,1c-8.22,3.51-16.29,7.36-24.38,11.06.4,1.8,1.85,2,2.68,2.87s1.85,1.54,2,2.66c.46,4.73,0,9.5,1.07,14.26A10.56,10.56,0,0,1,546,656c-2.43,4.13-2.66,9.2-5.59,12.89-2.39,3-6.17,3-9.73,2.3-4.15-.83-8.3-1.72-12.4-2.79-2.52-.67-2.91,0-2.66,2.48.34,3.37.78,6.05,4.71,7.37,2.85,1,4.4,4.08,5.86,6.63,2.06,3.6,3.93,3.16,6.27.55-2.24,3.58-.1,6.14,1.75,9.06,2.74,4.31,7.21,6.36,11.06,9.13,7.35,5.27,11.61,17.12,9.1,26.1-2.06,7.35-1.33,14,4.71,19.68s10.25,12.86,13.61,20.33c1.16,2.59,1.9,1.86,3.41,1.31-1.56,2.64-1.29,5.25-.27,8,1.84,5.1,1.39,10.49,1.63,15.78-.61,7.58-4.07,14.22-6.83,21.11a21.53,21.53,0,0,1-6.91,8.92c-4,3-5.39,6.46-4.85,11.11-.12.67-1.11,1.45-.35,2,1,.62,1.4-1.22,2.48-1a1.36,1.36,0,0,1,1.49,1.49c-3,.2-3.2,2.2-3,4.51,0,2.74-.11,5.5,0,8.24.12,2.31-.73,3.57-3.07,3.75l.16-6c2.57-1.53,1.17-3.59,1-5.7C556,844,556.75,845.15,556.48,846Z" transform="translate(-382.76 -578.9)"/><path class="cls-4" d="M598.39,783.05c7.9-11.93,14.42-24.64,21.32-37.15,2.27-4.12,4.82-8.1,7.24-12.14.18,12.77-3.81,24.59-8.16,36.36-5.11,13.79-13.75,25.28-24,35.37-7.2,7-14.68,14-23.59,19.1-2.3,1.32-3.57,4.13-6.4,4.84,5.52-7.38,11.13-14.7,16.54-22.16C587.11,799.27,593.44,791.65,598.39,783.05Z" transform="translate(-382.76 -578.9)"/><path class="cls-7" d="M598.39,783.05c-4.95,8.6-11.28,16.22-17.09,24.22-5.41,7.46-11,14.78-16.54,22.16l-2.28,3.1c-1.46.91-1.68,3.11-3.63,3.52-.54-4.65.87-8.07,4.85-11.11a21.53,21.53,0,0,0,6.91-8.92c2.76-6.89,6.22-13.53,6.83-21.11-.67,2.77,1.62,5,1.5,7.6-.55.11-1.18.13-1.11,1a.36.36,0,0,0,.24.24c.82.08.83-.57.95-1.11,3.52-.89,5.61-2.71,6.79-6.54.38-1.24-.48-6.57,4.58-5.32.59.15,2.65-2.36,2.05-4.21-1.14-3.52.83-3.64,3.33-3.47C596.64,783.11,597.52,783.05,598.39,783.05Z" transform="translate(-382.76 -578.9)"/><path class="cls-8" d="M480.65,651.06c-1.38.26-2.09-.74-2.9-1.55,2.27-3,4.67-5.84,6.79-8.9,9.81-14.16,17.55-29.48,25.28-44.82,1.69-3.36,3.26-6.42.73-9.95h.92a1.6,1.6,0,0,0,1.45.76c.22,2.4.59,4.52,3.79,4.77a2.86,2.86,0,0,1,2.21,2.61c-5.29-2.09-5.18-2-8,3.42-8.75,17.05-17,34.39-29,49.56C481.1,648.08,480.11,649.39,480.65,651.06Z" transform="translate(-382.76 -578.9)"/><path class="cls-5" d="M512.92,586.61a1.6,1.6,0,0,1-1.45-.76c-.11-.73.33-1.72-.8-2-.14,0-.43.68-.66,1-4.58-4.06-8.17-4.42-13.58-1.36l-1.53-.71-6.68-2.25c2.38-2.8,5.5-1.46,8-.81a8,8,0,0,0,4.11,0c4.51-1,9.08-.89,14.66-.55-2.66,2.08-5,.5-6.77,1.76.09,1.41,1.21,1,1.95,1C515.26,582.3,515.27,582.29,512.92,586.61Z" transform="translate(-382.76 -578.9)"/><path class="cls-9" d="M559.48,843.05c-.21-2.31,0-4.31,3-4.51v16l-1.14.08c-.76-2.54-.1-5.28-.37-7.9C560.83,845.35,561.76,843.52,559.48,843.05Z" transform="translate(-382.76 -578.9)"/><path class="cls-9" d="M558.85,836.05c1.95-.41,2.17-2.61,3.63-3.52.18,1.73.4,3.48-1.5,4.52-1.08-.27-1.53,1.57-2.48,1C557.74,837.5,558.73,836.72,558.85,836.05Z" transform="translate(-382.76 -578.9)"/><path class="cls-5" d="M456,582.05c-1.74-.4-2-1.59-.86-2.62.94-.82,2.12-.44,2.36,1.12h0A1.36,1.36,0,0,0,456,582.05Z" transform="translate(-382.76 -578.9)"/><path class="cls-4" d="M576.08,771.08c-1.51.55-2.25,1.28-3.41-1.31-3.36-7.47-7.58-14.66-13.61-20.33s-6.77-12.33-4.71-19.68c2.51-9-1.75-20.83-9.1-26.1-3.85-2.77-8.32-4.82-11.06-9.13-1.85-2.92-4-5.48-1.75-9.06l0,.06c1.43-.9,3.73-1.12,3-3.76,13.47-19.58,31.48-22.38,51.63-15.42,4.63,1.6,6.6,6.56,8.31,11a86,86,0,0,1,4.91,21.73c-.08.48-.17,1-.26,1.44q0,8.65,0,17.3a27.6,27.6,0,0,1-4.63,13.57c-4.41,6.78-7.05,14.43-10.35,21.77C582.26,759.23,579.87,765.5,576.08,771.08Z" transform="translate(-382.76 -578.9)"/><path class="cls-7" d="M600,700.5c.09-.48.18-1,.26-1.44.67.13,1.21.48,1.21,1.19,0,5.71,0,11.42,0,17.12,0,.13-.32.4-.41.37s-.35-.29-.52-.44C600.7,711.69,601.35,706.07,600,700.5Z" transform="translate(-382.76 -578.9)"/><path class="cls-8" d="M600,700.5c1.37,5.57.72,11.19.51,16.8l-.52.5Q600,709.15,600,700.5Z" transform="translate(-382.76 -578.9)"/><path class="cls-6" d="M535.39,681.77c.76,2.64-1.54,2.86-3,3.76C532.85,683.83,534.17,682.84,535.39,681.77Z" transform="translate(-382.76 -578.9)"/><path class="cls-4" d="M471.1,666.32a4.19,4.19,0,0,1-3.33,4c-7.72,2.23-11.5,8.12-13.77,15-3.18,9.68-4.7,19.75-6.39,29.8-2.37,14.11-2.14,28.26-2.15,42.44a101.64,101.64,0,0,0,2.08,19.91c-5.38-6.55-9.11-14.11-13.16-21.47a160.05,160.05,0,0,1-13.29-30.63,22.05,22.05,0,0,1-1.06-7.72q0-9.3,0-18.6c1.24-14.38,4.39-27.82,18-36.05,5.58-3.41,11.68-3.8,18-3.13C461.27,661.36,466.67,662.69,471.1,666.32Z" transform="translate(-382.76 -578.9)"/><path class="cls-4" d="M450,781.59c6,4.1,11.81,8.38,17.93,12.24,3,1.89,5.31,4.85,8.91,5.81.78.2,1.48.7,1.05,1.58-1.52,3.09-1.28,6.84-3.66,9.6-2.34-3.87-6-6.52-9-9.8C459.73,794.91,453.77,789.12,450,781.59Z" transform="translate(-382.76 -578.9)"/><path class="cls-7" d="M455.93,659.89c-6.29-.67-12.39-.28-18,3.13.46-2.79,3.2-3.55,5-3.89C447.19,658.28,451.74,657.37,455.93,659.89Z" transform="translate(-382.76 -578.9)"/><path class="cls-8" d="M513.1,678.83c1.1,1.42,3.87-.42,4.35,2.22l-2.19-.13c6,5.51,9.44,12.73,14.19,18.94-.86,3.14-3.14,2.23-5.14,1.68-11.76-3.2-21.08-10.32-29.63-18.61a45.34,45.34,0,0,0-8.32-6.85c-4-2.38-8.05-5-13.15-4.15,1-1.23,1.84-2.57,3.55-2.89-.32,1.18.41,1.39,1.35,1.7,7.19,2.38,13,6.72,18.38,12.06,8,7.94,17.15,14.15,28.11,17.38a3.42,3.42,0,0,0,2.87-.12,95.26,95.26,0,0,0-11.74-16C514.39,682.47,513.18,681,513.1,678.83Z" transform="translate(-382.76 -578.9)"/><path class="cls-10" d="M555,825c0,.55,0,1.09.07,1.63s-.52.91-.06,1.4l0,0a35.69,35.69,0,0,1-18.2-1.46c-3.76-1.38-7.53-2.89-10.6-5.26-6.38-4.93-13.71-7.88-20.93-11-6.81-3-14-5-20.54-8.73-1.74-1-2.32-.52-2.73,1.34a63.43,63.43,0,0,1-2.06,6.3c-.71-3,1-5.79.56-8.81-.2-1.32,2.52-.34,2.48-2.12,8.6,5,18.22,7.74,27.24,11.81,5.39,2.43,11,4.78,15.69,8.26a45.17,45.17,0,0,0,18.92,8.1C548.14,827,551.82,827.2,555,825Z" transform="translate(-382.76 -578.9)"/><path class="cls-11" d="M556.48,846c.27-.82-.44-2,1.15-2.63.14,2.11,1.54,4.17-1,5.7Z" transform="translate(-382.76 -578.9)"/><path class="cls-8" d="M494.9,582.86l1.53.71c-.67,2-1.24,4-2,6-7.46,18.23-16.36,35.79-25,53.46-1,2.13-1.33,3.66.85,5-2.69.78-1.72-3-3.78-3,6.47-13.42,13-26.8,19.38-40.27C489.2,597.6,492.67,590.48,494.9,582.86Z" transform="translate(-382.76 -578.9)"/><path class="cls-11" d="M448.51,605.3c-.27.77-.6,2-1.37.48-.47-1-.53-2.46,1.27-2.72C448.44,603.8,448.47,604.55,448.51,605.3Z" transform="translate(-382.76 -578.9)"/><path class="cls-1" d="M473.21,671.93c5.1-.89,9.11,1.77,13.15,4.15a45.34,45.34,0,0,1,8.32,6.85c8.55,8.29,17.87,15.41,29.63,18.61,2,.55,4.28,1.46,5.14-1.68l2.45-.88c2.44,3,5.64,5.21,8.74,7.49,9.34,6.87,11.76,13.55,8.55,24.71-1.61,5.57-1.42,10.69,2.57,16.06-4.55-.67-8.29-.3-11.76,1.55-1.7.75-3.48,1.36-5.1,2.26q-20.05,11.15-40,22.41c-2.44,1.38-4.33,1.74-6.6-.45a75.16,75.16,0,0,0-7.68-5.9c-3.87-2.84-4.86-5.07-3.48-9.51,3-9.73,3.89-19.72,4.39-29.84.35-7,1.05-13.77,7-19.17,4.69-4.22,5.39-10.1,2.06-16.07-1.87-3.35-3.68-6.74-5.23-10.29C484,679.05,482,675.81,478,675c-.65-1.08-1.76-.51-2.65-.74C475.83,672.36,473.23,673.35,473.21,671.93Z" transform="translate(-382.76 -578.9)"/><path class="cls-12" d="M555,825c-3.14,2.16-6.82,2-10.13,1.38a45.17,45.17,0,0,1-18.92-8.1c-4.7-3.48-10.3-5.83-15.69-8.26-9-4.07-18.64-6.76-27.24-11.81-1.22-1.5-3.66-1.24-4.58-3.17.86.06,2-.2,2.54.24,3.29,2.58,6.77.29,8.93-.91,5.79-3.21,10.72-1.1,15.8.86,1.69.65,2.3-.06,3.05-1,.61-.76.72-1.83-.46-2.06-3.48-.65-5.34-3.73-8.18-5.2-2.09-1.07-2.28-2.34-1.85-4.19A244.94,244.94,0,0,0,518.9,796c4.57,2.7,8.92,5.72,13.87.83.23-.23.71-.21,1.05-.36,6.38-2.84,13.36-3.58,19.95-5.72a13.15,13.15,0,0,1,4.08-.25c1,0,2,.11,2.29,1.42a2.58,2.58,0,0,1-.66,2.74c-.76.64-1.57,1.22-2.35,1.83-2.57,1.24-5.5.67-8.13,1.62-3.51,2.14-3.27,4.76,1,6.81,5.79,2.78,11.75,5.22,18.36,5.27-.78,2.94-1.08,6-4.18,7.87-2,1.16-1.75,4.57-4.7,4.93-1.5.68-3.5.28-4.52,2ZM490.5,799.53c-.24-1.47-1.31-2.1-2.73-2.82-.41,2.53,1,2.84,2.69,2.86.31,2.22,2.59,1.42,3.81,2.35a2.56,2.56,0,0,0,3.36-.57c.54-.79.05-1.34-.52-1.92-1-1-2.1-2-3.48-.73C492.67,799.61,491.61,799.52,490.5,799.53Zm7.86-2.38c.94,1.09,1.4,2.89,3.37,2.13a1.16,1.16,0,0,0,.61-1.58C501.45,795.81,499.88,796.69,498.36,797.15Z" transform="translate(-382.76 -578.9)"/><path class="cls-13" d="M475.36,674.23c.89.23,2-.34,2.65.74,2.49,3.32,6.14,5.8,7.13,10.22a37.9,37.9,0,0,0,4,9.48c2.35,4.39,1.55,8.3-1.65,11.89-1.11-.17-2.83.47-2.93-1.29-.19-3.23-2.35-3.2-4.61-3.22-.09-.67.23-1.51-.65-1.85-.15-.05-.64.34-.68.57-.16,1,.58,1.17,1.33,1.28.26,2.45-1.19,5.55,2.64,6.69.37.11.32,1.59.47,2.43v0c-1.32-.06-1.59.74-1.52,1.83.63,1.4-.22,2.71-.21,4.07-1.41-.33-3-.67-2.83,1.54.21,3.53-2,3.73-4.63,3.73-5.49,0-11,0-16.49,0-1.06,0-2.59-.37-2.75,1.17-.28,2.59-1.71,5.92-1,7.5,1.62,3.82-1.94,6.17-1,9.39-1.64-1.12-1.07-2.58-1.14-3.87-.42-8.17,2.85-16.12,1.42-24.34,0-.37.06-.75.1-1.12,3.14-2.13.74-5.24,1.39-7.81.14-1.43-.38-3,.74-4.23,1.48.13,2.33-.36,2.33-2,0-2.3.77-4.52,1.1-6.68.43-2.74,2.19-5.16,1.85-8C463.74,675.23,469.09,672.34,475.36,674.23Z" transform="translate(-382.76 -578.9)"/><path class="cls-14" d="M498.23,782.82c-.43,1.85-.24,3.12,1.85,4.19,2.84,1.47,4.7,4.55,8.18,5.2,1.18.23,1.07,1.3.46,2.06-.75.94-1.36,1.65-3.05,1-5.08-2-10-4.07-15.8-.86-2.16,1.2-5.64,3.49-8.93.91-.56-.44-1.68-.18-2.54-.24-8.71-4.83-16.65-10.77-24.51-16.85-2.93-2.26-2.59-5.57-3-8.46a73.06,73.06,0,0,1-.89-16c2.26.51,1.4,2.34,1.46,3.67.11,2.88,0,5.76,0,9.57,2.91-6.28.79-11.92,2.33-17.25a23.4,23.4,0,0,1,.76,4.34c.34,2,.93,4,3.5,4.14,3.32.19,6.67-.19,10,.53l-.06-8.39c0-.25,0-.5,0-.75.07-1.08-.21-2.45,1.49-2.46s1.56,1.38,1.47,2.45c-.24,2.78,0,5.23,3,6.44l.85,3.07,0,0c-.72,0-1.93-.3-1.95.47-.11,2.93-1.29,3.44-4.11,3-1.61-.24-2.46,1.74-2.3,3.59.25,2.89,1.83.14,2.47.61,1.36,1,2.79-.65,4.67.87,1.67,1.34,4.49,1.41,5.21,4.27a1.56,1.56,0,0,0,1-.08c1.68-1.15,1.45.21,1.67,1.17.77,3.25,3.4,4.16,6.21,4.51,1.51.18,2.53.71,2.15,2.16-.74,2.87,1,3.18,3,3.26,1.75.07,3.5-.07,5.24-.12Z" transform="translate(-382.76 -578.9)"/><path class="cls-2" d="M470.23,648c-2.18-1.36-1.89-2.89-.85-5,8.65-17.67,17.55-35.23,25-53.46.8-1.95,1.37-4,2-6,5.41-3.06,9-2.7,13.58,1.36l.54.91c2.53,3.53,1,6.59-.73,9.95-7.73,15.34-15.47,30.66-25.28,44.82-2.12,3.06-4.52,5.94-6.79,8.9l-2.24,0c-1.37-.91-3-.85-4.53-1.25Z" transform="translate(-382.76 -578.9)"/><path class="cls-15" d="M474,756.07c-3-1.21-3.28-3.66-3-6.44.09-1.07.22-2.45-1.47-2.45s-1.42,1.38-1.49,2.46c0,.25,0,.5,0,.75l.06,8.39c-3.3-.72-6.65-.34-10-.53-2.57-.14-3.16-2.13-3.5-4.14a23.4,23.4,0,0,0-.76-4.34c-1.54,5.33.58,11-2.33,17.25,0-3.81.08-6.69,0-9.57-.06-1.33.8-3.16-1.46-3.67-.47-14-.13-27.88,2.93-41.61,1.43,8.22-1.84,16.17-1.42,24.34.07,1.29-.5,2.75,1.14,3.87-1-3.22,2.59-5.57,1-9.39-.67-1.58.76-4.91,1-7.5.16-1.54,1.69-1.17,2.75-1.17,5.5,0,11,0,16.49,0,2.58,0,4.84-.2,4.63-3.73-.13-2.21,1.42-1.87,2.83-1.54-2.15,9.89-1,20.11-3.05,30-1.23,0-2.46,0-3.69,0-.87,0-1.8,0-2,1.15a1.38,1.38,0,0,0,1.33,1.8c1.49.2,1.3,1.05,1,2.13C474.5,753.43,474.28,754.76,474,756.07Zm-19.56-10.51c0-.49,0-1.07-.68-1.07s-.69.57-.69,1,0,1.06.67,1.07S454.39,746,454.43,745.56Z" transform="translate(-382.76 -578.9)"/><path class="cls-12" d="M460.43,682.29c.34,2.86-1.42,5.28-1.85,8-.33,2.16-1.11,4.38-1.1,6.68,0,1.66-.85,2.15-2.33,2C456.41,693.28,456.49,687.18,460.43,682.29Z" transform="translate(-382.76 -578.9)"/><path class="cls-11" d="M446.22,619.79a11.17,11.17,0,0,1,.2,7.49C445.07,624.68,445.33,622.75,446.22,619.79Z" transform="translate(-382.76 -578.9)"/><path class="cls-15" d="M454.41,703.24c-.65,2.57,1.75,5.68-1.39,7.81A18.65,18.65,0,0,1,454.41,703.24Z" transform="translate(-382.76 -578.9)"/><path class="cls-11" d="M447.17,634.77c.87.42,1.35,1,1.15,1.82-.06.25-.6.65-.73.58a1.84,1.84,0,0,1-1-1.79C446.54,635.16,447,635,447.17,634.77Z" transform="translate(-382.76 -578.9)"/><path class="cls-11" d="M460.61,830.94c-.31.86.27,2-1.17,2.95-.58-1.54-.66-2.52,1.15-3Z" transform="translate(-382.76 -578.9)"/><path class="cls-11" d="M451.49,826.55c1.23.12,1.63.84,1.34,2-.07.24-.57.61-.68.56-1.12-.57-.49-1.66-.67-2.51Z" transform="translate(-382.76 -578.9)"/><path class="cls-8" d="M471,648.23c1.52.4,3.16.34,4.53,1.25C474,649.21,472,650.55,471,648.23Z" transform="translate(-382.76 -578.9)"/><path class="cls-11" d="M444.72,631.56c.13-.74.28-1.5,1.29-1.34.23,0,.62.53.57.68-.34.89-1.19.55-1.86.66Z" transform="translate(-382.76 -578.9)"/><path class="cls-11" d="M456,833.3c.09-.67-.23-1.51.66-1.85.14-.06.64.33.67.57.17,1-.57,1.17-1.32,1.28Z" transform="translate(-382.76 -578.9)"/><path class="cls-11" d="M451.48,826.56c-.55-.1-1.19-.09-1.13-.91a.3.3,0,0,1,.23-.23c.82-.06.81.58.91,1.13Z" transform="translate(-382.76 -578.9)"/><path class="cls-11" d="M456,582.05a1.36,1.36,0,0,1,1.5-1.5A1.36,1.36,0,0,1,456,582.05Z" transform="translate(-382.76 -578.9)"/><path class="cls-3" d="M541.49,750.09c7-2.35,12.3-.07,16.85,5.57,9.49,11.78,16.22,24.49,14.72,40.22-.42,4.46-1.34,8.86-3.82,12.74-6.44.2-12.25-2.12-18-4.55-2.26-1-2.31-2.56-1.47-4.5,3.46.2,6.76-.26,9.63-2.42a4.9,4.9,0,0,0,2.45-5.74c-.75-2.3-3.38-2.37-5.72-2.48-2.74-.13-5,1.26-7.58,1.72-6.83,1.23-13.55,3-19.64,6.38a5,5,0,0,1-5.72,0,204.29,204.29,0,0,1-29.85-20,3.43,3.43,0,0,1,.73-.82Q517.75,763.15,541.49,750.09Z" transform="translate(-382.76 -578.9)"/><path class="cls-8" d="M541.49,750.09Q517.76,763.16,494,776.24a3.43,3.43,0,0,0-.73.82l-1.46.06c-4.2-3-8.34-6.17-12.6-9.12-3.16-2.17-4.73-5-4.38-8.83l0,0c1.93-3.81,2.72-7.95,3.46-12.1,2.1-9.89.9-20.11,3.05-30,0-1.36.84-2.67.21-4.07a2.77,2.77,0,0,0,1.52-1.83v0c2.35-.7,3.15-2.88,4.43-4.61,3.2-3.59,4-7.5,1.65-11.89a37.9,37.9,0,0,1-4-9.48c-1-4.42-4.64-6.9-7.13-10.22,4,.84,6,4.08,7.35,7.26,1.55,3.55,3.36,6.94,5.23,10.29,3.33,6,2.63,11.85-2.06,16.07-6,5.4-6.69,12.2-7,19.17-.5,10.12-1.36,20.11-4.39,29.84-1.38,4.44-.39,6.67,3.48,9.51a75.16,75.16,0,0,1,7.68,5.9c2.27,2.19,4.16,1.83,6.6.45q20-11.31,40-22.41c1.62-.9,3.4-1.51,5.1-2.26C540.06,749.73,540.68,750,541.49,750.09Z" transform="translate(-382.76 -578.9)"/><path class="cls-7" d="M531.9,699l-2.45.88c-4.75-6.21-8.15-13.43-14.19-18.94l2.19.13C523,686.42,527.45,692.71,531.9,699Z" transform="translate(-382.76 -578.9)"/><path class="cls-4" d="M549.73,799.57c-.84,1.94-.79,3.54,1.47,4.5,5.79,2.43,11.6,4.75,18,4.55l-.87,1.57c-6.61-.05-12.57-2.49-18.36-5.27-4.28-2-4.52-4.67-1-6.81A1.45,1.45,0,0,0,549.73,799.57Z" transform="translate(-382.76 -578.9)"/><path class="cls-10" d="M555,825c1-1.76,3-1.36,4.52-2-.13,1,.31,2.18-.6,3.26A5.49,5.49,0,0,0,555,825Z" transform="translate(-382.76 -578.9)"/><path class="cls-11" d="M545.23,624.05c.72.16,1.93-.37,1.82,1,0,.4-1.2,1.11-1.68,1-1.5-.38-.16-1.26-.14-1.94Z" transform="translate(-382.76 -578.9)"/><path class="cls-3" d="M555,828.07c-.46-.49,0-.93.06-1.4.48.09,1.33-.4,1.22.65C556.17,828,555.68,828.29,555,828.07Z" transform="translate(-382.76 -578.9)"/><path class="cls-1" d="M579,802.59c-.12.54-.13,1.19-.95,1.11a.36.36,0,0,1-.24-.24c-.07-.82.56-.84,1.11-1Z" transform="translate(-382.76 -578.9)"/><path class="cls-11" d="M510.55,585.84l-.54-.91c.23-.36.52-1.07.66-1,1.13.24.69,1.23.8,2Z" transform="translate(-382.76 -578.9)"/><path class="cls-4" d="M491.84,777.12l1.46-.06a204.29,204.29,0,0,0,29.85,20,5,5,0,0,0,5.72,0c6.09-3.35,12.81-5.15,19.64-6.38,2.55-.46,4.84-1.85,7.58-1.72,2.34.11,5,.18,5.72,2.48a4.9,4.9,0,0,1-2.45,5.74c-.56-.82-1.47-.5-2.23-.66.78-.61,1.59-1.19,2.35-1.83a2.58,2.58,0,0,0,.66-2.74c-.26-1.31-1.31-1.41-2.29-1.42a13.15,13.15,0,0,0-4.08.25c-6.59,2.14-13.57,2.88-19.95,5.72-.34.15-.82.13-1.05.36-4.95,4.89-9.3,1.87-13.87-.83a244.94,244.94,0,0,1-20.67-13.18l-.13.09C496.54,780.41,493.61,779.39,491.84,777.12Z" transform="translate(-382.76 -578.9)"/><path class="cls-10" d="M557.13,796.49c.76.16,1.67-.16,2.23.66-2.87,2.16-6.17,2.62-9.63,2.42a1.45,1.45,0,0,1-.73-1.46C551.63,797.16,554.56,797.73,557.13,796.49Z" transform="translate(-382.76 -578.9)"/><path class="cls-14" d="M490.5,799.53c1.11,0,2.17.08,3.13-.83,1.38-1.29,2.46-.3,3.48.73.57.58,1.06,1.13.52,1.92a2.56,2.56,0,0,1-3.36.57c-1.22-.93-3.5-.13-3.81-2.35Z" transform="translate(-382.76 -578.9)"/><path class="cls-14" d="M498.36,797.15c1.52-.46,3.09-1.34,4,.55a1.16,1.16,0,0,1-.61,1.58C499.76,800,499.3,798.24,498.36,797.15Z" transform="translate(-382.76 -578.9)"/><path class="cls-14" d="M490.46,799.57c-1.69,0-3.1-.33-2.69-2.86,1.42.72,2.49,1.35,2.73,2.82Z" transform="translate(-382.76 -578.9)"/><path class="cls-15" d="M487.52,706.56c-1.28,1.73-2.08,3.91-4.43,4.61-.15-.84-.1-2.32-.47-2.43-3.83-1.14-2.38-4.24-2.64-6.69h0c2.26,0,4.42,0,4.61,3.22C484.69,707,486.41,706.39,487.52,706.56Z" transform="translate(-382.76 -578.9)"/><path class="cls-15" d="M480,702.05c-.75-.11-1.49-.29-1.33-1.28,0-.23.53-.62.68-.57.88.34.56,1.18.65,1.85Z" transform="translate(-382.76 -578.9)"/><path class="cls-15" d="M483.08,711.14a2.77,2.77,0,0,1-1.52,1.83C481.49,711.88,481.76,711.08,483.08,711.14Z" transform="translate(-382.76 -578.9)"/><path class="cls-12" d="M491.84,777.12c1.77,2.27,4.7,3.29,6.26,5.79-1.74,0-3.49.18-5.24.11-2-.08-3.75-.39-3-3.26.38-1.45-.64-2-2.15-2.16-2.81-.35-5.44-1.26-6.21-4.51-.22-1,0-2.32-1.67-1.17a1.56,1.56,0,0,1-1,.08c-.72-2.86-3.54-2.93-5.21-4.27-1.88-1.52-3.31.12-4.67-.87-.64-.47-2.22,2.28-2.47-.61-.16-1.85.69-3.83,2.3-3.59,2.82.42,4-.09,4.11-3,0-.77,1.23-.52,1.95-.47-.35,3.84,1.22,6.66,4.38,8.83C483.5,771,487.64,774.08,491.84,777.12Z" transform="translate(-382.76 -578.9)"/><path class="cls-12" d="M478.3,747c-.74,4.15-1.53,8.29-3.46,12.1l-.85-3.07c.29-1.31.51-2.64.91-3.92.34-1.08.53-1.93-1-2.13a1.38,1.38,0,0,1-1.33-1.8c.2-1.13,1.13-1.14,2-1.15C475.84,747.05,477.07,747.05,478.3,747Z" transform="translate(-382.76 -578.9)"/><path class="cls-14" d="M454.43,745.56c0,.48,0,1.05-.7,1.05s-.67-.59-.67-1.07,0-1.06.69-1S454.39,745.07,454.43,745.56Z" transform="translate(-382.76 -578.9)"/></svg>